<?xml version="1.0" standalone="no"?>
<!DOCTYPE svg PUBLIC "-//W3C//DTD SVG 20010904//EN"
 "http://www.w3.org/TR/2001/REC-SVG-20010904/DTD/svg10.dtd">
<svg version="1.0" xmlns="http://www.w3.org/2000/svg"
 width="206.000000pt" height="86.000000pt" viewBox="0 0 206.000000 86.000000"
 preserveAspectRatio="xMidYMid meet">

<g transform="translate(0.000000,86.000000) scale(0.100000,-0.100000)"
fill="#000000" stroke="none">
<path d="M0 545 l0 -315 1030 0 1030 0 0 315 0 315 -1030 0 -1030 0 0 -315z
m211 89 l34 -76 32 73 c29 69 33 74 65 77 30 3 31 2 15 -10 -16 -12 -17 -23
-11 -91 4 -42 10 -77 14 -77 5 0 25 41 46 90 25 60 43 90 53 88 7 -2 30 -41
51 -87 20 -47 42 -87 48 -89 17 -5 16 150 0 166 -9 9 -6 12 13 12 19 0 40 -17
85 -69 l59 -70 3 55 c2 33 -2 62 -9 70 -9 12 -5 14 27 14 31 -1 36 -3 22 -11
-15 -8 -18 -25 -18 -102 l-1 -92 -74 80 -74 80 -1 -67 c0 -53 4 -69 18 -77 13
-8 -1 -10 -53 -11 -43 0 -65 4 -56 9 10 7 11 16 4 37 -8 25 -16 29 -50 32 -37
3 -42 1 -51 -27 -9 -26 -8 -32 6 -41 12 -7 -2 -9 -53 -9 -52 0 -66 2 -52 10
18 11 22 43 10 100 -6 33 -6 33 -41 -41 l-34 -75 -38 80 -38 80 -3 -63 c-3
-46 0 -67 11 -77 12 -13 10 -15 -24 -15 -34 0 -36 1 -22 16 20 20 23 169 4
177 -7 3 1 6 18 6 29 1 33 -4 65 -75z m723 60 c9 -8 16 -23 16 -32 0 -12 -7
-9 -28 11 -35 34 -66 34 -97 2 -56 -55 -14 -165 58 -151 17 3 39 14 49 23 22
20 24 1 2 -21 -20 -21 -102 -21 -131 -1 -50 35 -51 128 0 167 29 23 110 24
131 2z m94 5 c-12 -6 -18 -22 -18 -44 l0 -35 55 0 55 0 0 35 c0 22 -6 38 -17
44 -13 8 15 10 102 8 111 -2 120 -3 123 -22 3 -16 1 -18 -9 -7 -7 6 -30 12
-51 12 -37 0 -38 -1 -38 -35 0 -32 3 -35 28 -35 15 0 33 5 40 12 9 9 12 6 12
-17 0 -23 -3 -26 -12 -17 -7 7 -25 12 -40 12 -26 0 -28 -3 -28 -40 l0 -40 41
0 c23 0 47 7 56 15 14 14 17 14 30 -5 10 -14 23 -20 41 -18 40 5 34 35 -13 67
-45 30 -53 51 -30 75 20 20 59 21 78 1 13 -13 16 -13 21 0 8 21 136 22 136 1
0 -9 -8 -12 -25 -8 -25 4 -25 4 -25 -66 0 -47 4 -72 13 -75 6 -3 -6 -5 -28 -5
-22 0 -34 2 -27 5 8 3 12 28 12 74 0 67 -1 69 -25 69 -14 0 -25 -4 -25 -10 0
-15 -19 -12 -37 5 -19 20 -47 15 -51 -8 -2 -11 9 -24 33 -38 47 -28 58 -50 39
-77 -20 -28 -88 -31 -103 -4 -10 16 -10 16 -11 0 0 -16 -12 -18 -122 -18 -89
1 -118 3 -105 11 11 7 17 22 17 49 l0 40 -55 0 -55 0 0 -40 c0 -27 6 -42 18
-49 13 -8 6 -10 -33 -10 -39 0 -46 2 -32 10 14 8 17 24 17 89 0 65 -3 81 -17
89 -14 8 -7 10 32 10 39 0 46 -2 33 -10z m706 -5 c4 -9 3 -20 0 -23 -4 -3 -9
0 -11 7 -3 7 -22 12 -44 12 -38 0 -39 -1 -39 -35 0 -32 2 -35 30 -35 17 0 30
5 30 10 0 6 5 10 10 10 6 0 10 -11 10 -25 0 -25 -14 -33 -25 -15 -3 6 -17 10
-31 10 -21 0 -24 -4 -24 -40 0 -40 0 -40 40 -40 27 0 42 6 49 18 9 15 10 14
11 -6 0 -14 5 -22 13 -20 8 3 13 32 15 84 2 65 0 81 -14 91 -28 21 105 18 134
-3 26 -18 28 -50 5 -77 -17 -18 -17 -20 7 -40 14 -12 39 -32 55 -44 l30 -22
-28 -1 c-18 0 -42 13 -71 40 -53 49 -86 53 -86 10 0 -17 7 -33 18 -39 12 -7
-20 -10 -113 -10 -93 0 -125 3 -112 10 14 8 17 24 17 89 0 65 -3 81 -17 89
-14 8 2 10 58 11 62 0 78 -3 83 -16z m-514 -282 c0 -40 5 -73 12 -80 9 -9 4
-12 -22 -12 -26 0 -31 3 -22 12 7 7 12 36 12 66 0 47 -2 53 -17 48 -15 -6 -15
-4 2 14 10 11 22 20 27 20 4 0 8 -31 8 -68z m129 54 c13 -15 5 -46 -12 -46 -5
0 -3 -8 6 -18 23 -25 21 -59 -2 -72 -28 -15 -46 -13 -72 9 -22 18 -22 19 -6
44 10 16 13 28 7 32 -11 7 -14 48 -3 58 12 12 70 7 82 -7z m109 2 c21 -21 13
-46 -24 -88 l-36 -40 30 0 c17 0 33 6 36 13 3 6 5 3 3 -8 -2 -16 -11 -21 -50
-23 -26 -2 -47 1 -47 5 0 5 16 24 35 43 23 22 35 43 35 61 0 34 -26 45 -53 22
-19 -18 -20 -17 -8 5 13 24 58 31 79 10z m115 -90 c9 -6 9 -8 0 -8 -7 0 -13
-12 -13 -26 0 -14 -4 -23 -10 -19 -5 3 -10 15 -10 25 0 14 -9 20 -35 22 l-34
3 42 55 42 55 3 -50 c2 -27 9 -53 15 -57z"/>
<path d="M440 647 c-15 -31 -10 -40 18 -35 19 3 19 6 7 33 l-12 30 -13 -28z"/>
<path d="M1155 687 c-3 -7 -5 -47 -3 -88 3 -66 5 -74 23 -74 18 0 20 7 20 85
0 73 -2 85 -18 88 -9 2 -20 -3 -22 -11z"/>
<path d="M1800 656 c0 -52 8 -60 44 -46 50 19 27 90 -28 90 -12 0 -16 -11 -16
-44z"/>
<path d="M1274 459 c-9 -14 24 -41 46 -37 8 2 15 12 15 23 0 23 -48 34 -61 14z"/>
<path d="M1279 379 c-15 -28 9 -54 40 -44 26 8 27 41 2 55 -27 14 -29 13 -42
-11z"/>
<path d="M1510 410 l-21 -30 25 0 c22 0 26 4 26 30 0 17 -2 30 -4 30 -3 0 -14
-13 -26 -30z"/>
</g>
</svg>
