<?xml version="1.0" standalone="no"?>
<!DOCTYPE svg PUBLIC "-//W3C//DTD SVG 20010904//EN"
 "http://www.w3.org/TR/2001/REC-SVG-20010904/DTD/svg10.dtd">
<svg version="1.0" xmlns="http://www.w3.org/2000/svg"
 width="774.000000pt" height="133.000000pt" viewBox="0 0 774.000000 133.000000"
 preserveAspectRatio="xMidYMid meet">

<g transform="translate(0.000000,133.000000) scale(0.100000,-0.100000)"
fill="#000000" stroke="none">
<path d="M1535 1307 c-65 -22 -105 -46 -158 -95 -70 -67 -90 -110 -95 -213 -5
-101 13 -175 57 -236 39 -53 150 -126 265 -173 141 -57 189 -85 229 -129 67
-74 77 -204 21 -283 -87 -125 -295 -125 -404 -2 -43 49 -78 126 -87 194 -8 53
-10 55 -38 55 l-30 0 -11 -105 c-27 -245 -27 -250 -8 -257 12 -4 25 2 40 20
13 15 26 27 30 27 3 0 31 -15 62 -34 81 -50 159 -69 272 -69 131 0 194 24 276
107 85 86 108 146 108 286 1 100 -1 109 -32 172 -53 108 -133 164 -323 227
-188 62 -249 123 -249 250 0 68 8 91 49 134 41 45 75 58 150 58 117 1 188 -53
262 -193 39 -76 50 -86 77 -69 11 6 10 37 -4 167 -9 87 -20 163 -24 167 -4 4
-21 -4 -38 -18 l-31 -26 -63 22 c-79 27 -243 36 -303 16z"/>
<path d="M2592 1305 c-180 -41 -335 -165 -416 -336 -100 -209 -100 -427 1
-639 70 -147 239 -276 408 -311 81 -16 247 -17 315 0 112 27 198 78 298 177
50 51 92 98 92 105 0 7 -7 21 -16 31 -16 17 -20 15 -89 -51 -119 -112 -239
-157 -398 -149 -70 4 -97 10 -150 36 -123 61 -227 202 -273 372 -25 92 -25
302 0 385 41 136 115 233 215 283 51 24 66 27 166 27 103 0 114 -2 176 -31 37
-18 86 -49 109 -70 51 -46 128 -160 154 -227 15 -41 21 -47 39 -41 12 4 24 8
26 10 3 2 -5 91 -17 197 -12 105 -22 198 -22 205 0 22 -54 10 -58 -13 -8 -43
-20 -45 -85 -15 -34 16 -89 37 -122 45 -84 23 -274 28 -353 10z"/>
<path d="M6635 1250 c-108 -58 -135 -84 -98 -96 50 -15 83 -39 92 -67 7 -19
11 -211 11 -547 0 -429 2 -519 14 -523 7 -3 35 5 62 17 l49 22 50 -20 c36 -14
74 -20 140 -20 83 -1 96 2 157 32 159 78 251 263 220 442 -21 124 -80 213
-174 266 -48 26 -61 29 -149 29 -91 0 -100 -2 -168 -37 l-72 -37 2 297 c1 244
-1 297 -12 299 -8 1 -63 -25 -124 -57z m432 -584 c89 -60 140 -189 130 -328
-13 -169 -96 -263 -232 -262 -90 1 -154 43 -176 115 -5 19 -13 125 -16 236 -7
223 -7 219 56 254 29 15 52 19 116 16 69 -2 86 -6 122 -31z"/>
<path d="M0 1263 l0 -33 58 0 c31 0 62 -4 69 -8 29 -18 33 -70 33 -412 0 -455
13 -546 95 -653 66 -87 153 -127 316 -148 220 -28 418 60 500 223 56 110 60
150 66 548 2 201 9 379 14 396 11 36 44 54 99 54 38 0 40 1 40 33 l0 32 -213
0 -212 0 -3 -33 -3 -32 48 0 c58 0 88 -18 102 -63 13 -39 31 -341 31 -527 0
-317 -41 -430 -185 -501 -132 -65 -284 -47 -378 45 -54 52 -74 108 -88 244
-12 116 -8 727 5 755 13 28 60 47 116 47 50 0 50 0 50 33 l0 32 -280 0 -280 0
0 -32z"/>
<path d="M3402 1257 c3 -30 6 -32 47 -38 28 -4 51 -14 62 -28 10 -11 57 -139
105 -284 104 -311 309 -896 318 -905 4 -3 14 -2 23 4 9 5 102 223 207 484 211
524 266 646 306 685 29 28 77 45 127 45 31 0 33 2 33 35 l0 35 -207 -2 -208
-3 -3 -32 c-3 -32 -2 -33 33 -33 49 0 75 -16 75 -44 0 -46 -213 -650 -302
-859 l-21 -49 -13 31 c-29 69 -185 545 -223 680 -23 79 -41 161 -41 183 0 47
21 58 111 58 l59 0 0 35 0 35 -246 0 -245 0 3 -33z"/>
<path d="M4499 1021 c-20 -20 -29 -39 -29 -61 0 -48 47 -90 100 -90 33 0 48 6
72 30 27 27 30 36 25 73 -7 54 -35 77 -94 77 -36 0 -50 -6 -74 -29z"/>
<path d="M7469 1021 c-20 -20 -29 -39 -29 -61 0 -48 47 -90 100 -90 86 0 133
98 75 155 -37 37 -106 35 -146 -4z"/>
<path d="M4984 928 c-35 -55 -151 -176 -186 -194 -16 -8 -28 -23 -28 -34 0
-18 7 -20 67 -20 l66 0 -7 -267 c-7 -306 -6 -312 73 -368 36 -26 52 -30 104
-30 102 0 226 75 176 106 -7 4 -20 4 -28 -1 -9 -4 -37 -11 -62 -15 -56 -8 -82
3 -109 48 -18 29 -20 52 -20 280 l0 247 120 0 c120 0 121 0 130 26 24 63 22
64 -116 64 l-126 0 2 88 c1 48 2 93 1 100 -2 26 -32 10 -57 -30z"/>
<path d="M6389 772 c-25 -16 -61 -48 -80 -70 -20 -23 -39 -39 -42 -35 -4 3 -7
30 -7 60 0 37 -4 55 -14 59 -20 8 -216 -93 -216 -111 0 -8 18 -24 41 -35 64
-33 69 -55 69 -302 0 -117 -4 -218 -8 -225 -4 -6 -32 -13 -62 -15 -54 -3 -55
-4 -58 -35 l-3 -33 201 0 201 0 -3 33 c-3 32 -3 32 -63 35 -33 2 -63 9 -67 15
-4 7 -8 108 -8 225 0 233 5 261 56 301 30 23 51 24 157 5 51 -9 87 23 87 76 0
81 -93 107 -181 52z"/>
<path d="M4575 773 c-16 -9 -64 -32 -105 -50 -87 -38 -99 -62 -38 -76 20 -5
44 -17 53 -28 20 -21 21 -36 17 -321 l-2 -197 -62 -3 c-63 -3 -63 -3 -66 -35
l-3 -33 195 0 196 0 0 30 c0 29 -2 30 -44 30 -82 0 -76 -29 -76 356 0 382 4
364 -65 327z"/>
<path d="M5544 772 c-83 -29 -146 -90 -192 -189 -25 -53 -27 -68 -27 -183 0
-115 2 -130 27 -183 57 -121 125 -175 250 -198 128 -24 242 23 318 129 43 60
47 74 27 90 -10 9 -26 -1 -69 -43 -131 -125 -306 -93 -391 71 -21 41 -39 157
-31 200 l6 34 223 0 c123 0 230 3 239 6 23 9 20 69 -5 124 -52 114 -123 160
-249 160 -45 -1 -95 -8 -126 -18z m173 -57 c36 -24 56 -63 57 -108 l1 -42
-152 -3 c-103 -2 -153 1 -153 8 0 19 47 105 68 123 50 45 129 54 179 22z"/>
<path d="M7470 737 c-62 -31 -105 -58 -105 -67 0 -8 15 -18 37 -23 71 -17 73
-23 76 -266 2 -119 0 -231 -3 -248 -6 -32 -7 -33 -58 -33 -63 0 -80 -10 -75
-41 l3 -24 195 0 195 0 0 25 c0 23 -4 25 -50 28 -27 2 -55 8 -62 14 -10 8 -13
87 -13 349 0 316 -1 339 -17 338 -10 0 -65 -24 -123 -52z"/>
</g>
</svg>
